<svg xmlns="http://www.w3.org/2000/svg" width="65" height="25" viewBox="0 0 65 25">
  <g id="Group_16" data-name="Group 16" transform="translate(-2766 333)">
    <g id="phone" transform="translate(2765 -333.541)">
      <path id="Layer_3" data-name="Layer 3" d="M10.77,1a9.77,9.77,0,1,0,9.77,9.77A9.77,9.77,0,0,0,10.77,1Zm.419,6a3.354,3.354,0,0,1,3.35,3.35H13.7a2.515,2.515,0,0,0-2.512-2.512ZM13.9,16.633c-.025,0-2.54-.043-5.774-3.22-3.177-3.233-3.22-5.749-3.22-5.774,0-.313,1.954-2.73,2.386-2.73.15,0,.266.1.394.254a11.339,11.339,0,0,1,1.6,2.869c-.03.168-.173.3-.582.639a4.83,4.83,0,0,0-.564.521,4.5,4.5,0,0,0,.369.994,6.146,6.146,0,0,0,2.841,2.84,4.5,4.5,0,0,0,.994.369,4.831,4.831,0,0,0,.521-.564c.343-.409.471-.552.639-.582a11.259,11.259,0,0,1,2.869,1.6c.152.13.254.244.254.394C16.633,14.679,14.215,16.633,13.9,16.633Zm1.893-6.281a4.611,4.611,0,0,0-4.606-4.606V4.908a5.45,5.45,0,0,1,5.443,5.443Z" fill="#2687f3"/>
    </g>
    <text id="AirCall" transform="translate(2790 -319)" fill="#696969" font-size="13" font-family="MyanmarText-Bold, Myanmar Text" font-weight="700"><tspan x="0" y="0">AirCall</tspan></text>
  </g>
</svg>
